<svg width="20" height="20" viewBox="0 0 20 20" fill="none" xmlns="http://www.w3.org/2000/svg">
<path d="M20 2.02931C17.3099 1.5939 15.3119 2.10848 14.0058 3.57303C12.6998 5.03759 12.0468 7.19484 12.0468 10.0448V18.1196H20V10.0448H15.9064C15.692 8.61981 15.8869 7.46202 16.4912 6.57141C17.115 5.6808 18.1287 5.29487 19.5322 5.41362L20 2.02931ZM7.95322 2.02931C5.26316 1.5939 3.26511 2.10848 1.95906 3.57303C0.653022 5.03759 0 7.19484 0 10.0448V18.1196H7.95322V10.0448H3.85965C3.64522 8.61981 3.84016 7.46202 4.44444 6.57141C5.06823 5.6808 6.08187 5.29487 7.48538 5.41362L7.95322 2.02931Z" fill="white"/>
</svg>
