<svg width="166" height="60" viewBox="0 0 166 60" fill="none" xmlns="http://www.w3.org/2000/svg">
<path d="M82.5648 40.4302C83.5858 40.4302 84.5743 40.3 85.5303 40.0395C86.4957 39.7791 87.3589 39.3884 88.12 38.8674C88.8811 38.3372 89.4845 37.6721 89.93 36.8721C90.3848 36.0628 90.6122 35.1186 90.6122 34.0395C90.6122 33.0256 90.422 32.1884 90.0414 31.5279C89.6701 30.8674 89.1921 30.3372 88.6073 29.9372C88.0318 29.5279 87.4285 29.2116 86.7973 28.9884C86.1662 28.7558 85.5907 28.5698 85.0709 28.4302L81.5901 27.4814C81.1632 27.3698 80.7455 27.2302 80.3371 27.0628C79.9287 26.8953 79.5899 26.6767 79.3207 26.407C79.0515 26.1279 78.9169 25.7698 78.9169 25.3326C78.9169 24.8581 79.0794 24.4488 79.4042 24.1046C79.7384 23.7605 80.1654 23.5 80.6852 23.3233C81.2142 23.1372 81.7758 23.0535 82.3698 23.0721C83.2795 23.1 84.1148 23.3698 84.876 23.8814C85.6371 24.393 86.129 25.1372 86.3518 26.1139L90.4452 25.4163C89.9625 23.5279 89.025 22.0814 87.6327 21.0767C86.2404 20.0721 84.5047 19.5558 82.4255 19.5279C81.0518 19.5186 79.7987 19.7326 78.6663 20.1698C77.5339 20.607 76.6289 21.2721 75.9513 22.1651C75.2738 23.0581 74.935 24.1791 74.935 25.5279C74.935 26.486 75.0928 27.2814 75.4083 27.9139C75.7332 28.5372 76.137 29.0395 76.6196 29.4209C77.1023 29.8023 77.5989 30.0953 78.1094 30.3C78.6292 30.5046 79.084 30.6628 79.4739 30.7744L84.681 32.3093C85.4607 32.5419 85.9805 32.8349 86.2404 33.1884C86.5003 33.5325 86.6303 33.9093 86.6303 34.3186C86.6303 34.8767 86.44 35.3465 86.0594 35.7279C85.6881 36.1093 85.2101 36.3977 84.6254 36.593C84.0406 36.7884 83.4373 36.886 82.8154 36.886C81.7015 36.886 80.7084 36.5744 79.8359 35.9512C78.9633 35.3279 78.3879 34.4395 78.1094 33.286L74.1553 33.8721C74.3595 35.2302 74.8421 36.4023 75.6033 37.3884C76.3737 38.3651 77.3529 39.1186 78.541 39.6488C79.7384 40.1698 81.0796 40.4302 82.5648 40.4302Z" fill="#0B0F19"/>
<path d="M93.9509 22.8488H97.738V19.5H93.9509V22.8488ZM93.9509 40.0116H97.738V24.9419H93.9509V40.0116Z" fill="#0B0F19"/>
<path d="M102.191 40.0116H105.978V19.5H102.191V40.0116Z" fill="#0B0F19"/>
<path d="M110.43 22.8488H114.217V19.5H110.43V22.8488ZM110.43 40.0116H114.217V24.9419H110.43V40.0116Z" fill="#0B0F19"/>
<path d="M125.019 40.4302C126.764 40.4302 128.23 39.9977 129.418 39.1325C130.606 38.2674 131.414 37.0349 131.841 35.4349L127.97 34.6256C127.747 35.3512 127.413 35.9093 126.968 36.3C126.522 36.6907 125.872 36.886 125.019 36.886C123.877 36.886 123.014 36.4814 122.429 35.6721C121.853 34.8535 121.566 33.7884 121.566 32.4767C121.566 31.2209 121.839 30.1744 122.387 29.3372C122.944 28.4907 123.821 28.0674 125.019 28.0674C125.715 28.0674 126.337 28.286 126.884 28.7232C127.441 29.1605 127.831 29.7698 128.054 30.5512L131.841 29.5465C131.507 27.993 130.736 26.7698 129.53 25.8767C128.332 24.9744 126.847 24.5233 125.074 24.5233C123.543 24.5233 122.215 24.8674 121.092 25.5558C119.969 26.2442 119.097 27.1884 118.475 28.3884C117.862 29.5884 117.556 30.9512 117.556 32.4767C117.556 33.9837 117.853 35.3372 118.447 36.5372C119.041 37.7372 119.895 38.686 121.009 39.3837C122.123 40.0814 123.459 40.4302 125.019 40.4302Z" fill="#0B0F19"/>
<path d="M140.984 40.4302C142.488 40.4302 143.811 40.0953 144.952 39.4256C146.103 38.7465 146.999 37.8116 147.639 36.6209C148.289 35.4209 148.614 34.0395 148.614 32.4767C148.614 30.9232 148.294 29.5512 147.653 28.3605C147.013 27.1605 146.117 26.2209 144.966 25.5419C143.825 24.8628 142.497 24.5233 140.984 24.5233C139.499 24.5233 138.186 24.8581 137.044 25.5279C135.902 26.1977 135.007 27.1326 134.357 28.3326C133.707 29.5232 133.382 30.9046 133.382 32.4767C133.382 34.0302 133.698 35.407 134.329 36.607C134.97 37.7977 135.861 38.7325 137.002 39.4116C138.144 40.0907 139.471 40.4302 140.984 40.4302ZM140.984 36.886C139.805 36.886 138.91 36.4907 138.297 35.7C137.694 34.9 137.392 33.8256 137.392 32.4767C137.392 31.1651 137.68 30.1046 138.255 29.2953C138.84 28.4767 139.75 28.0674 140.984 28.0674C142.182 28.0674 143.082 28.4674 143.685 29.2674C144.298 30.0674 144.604 31.1372 144.604 32.4767C144.604 33.7698 144.303 34.8302 143.699 35.6581C143.105 36.4767 142.2 36.886 140.984 36.886Z" fill="#0B0F19"/>
<path d="M151.648 40.0116H155.491V32.3651C155.491 31.4256 155.593 30.6721 155.797 30.1046C156.011 29.5372 156.28 29.1093 156.605 28.8209C156.929 28.5232 157.278 28.3232 157.649 28.2209C158.02 28.1186 158.368 28.0674 158.693 28.0674C159.501 28.0674 160.122 28.2488 160.559 28.6116C161.004 28.9744 161.324 29.4256 161.519 29.9651C161.714 30.5046 161.83 31.0442 161.867 31.5837C161.905 32.1139 161.923 32.5512 161.923 32.8953V40.0116H165.766V31.5558C165.766 31.3046 165.747 30.9046 165.71 30.3558C165.673 29.807 165.566 29.2023 165.39 28.5419C165.214 27.8721 164.917 27.2302 164.499 26.6163C164.09 26.0023 163.515 25.4953 162.772 25.0953C162.03 24.6953 161.069 24.4953 159.89 24.4953C158.804 24.4953 157.858 24.6767 157.05 25.0395C156.243 25.4023 155.565 25.886 155.017 26.4907V24.9419H151.648V40.0116Z" fill="#0B0F19"/>
<path d="M13.9024 30L5.56094 16.7442L31.2803 0L30.5852 14.6512L13.9024 30Z" fill="url(#paint0_linear_20005128_10786)"/>
<path d="M30.5852 14.6512L31.2803 0L57.6948 11.8605L52.1338 35.5814L16.6828 41.1628L13.9024 30L30.5852 14.6512Z" fill="url(#paint1_linear_20005128_10786)"/>
<path d="M42.4022 60L16.6828 41.1628L52.1338 35.5814L58.3899 41.8604L42.4022 60Z" fill="url(#paint2_linear_20005128_10786)"/>
<path d="M52.1338 35.5814L58.3899 41.8604L63.9508 24.4186L57.6948 11.8605L52.1338 35.5814Z" fill="url(#paint3_linear_20005128_10786)"/>
<path d="M16.6828 41.1628L42.4022 60L16.6828 56.5116L0 36.279L16.6828 41.1628Z" fill="url(#paint4_linear_20005128_10786)"/>
<path d="M5.56094 16.7442L0 36.279L16.6828 41.1628L13.9024 30L5.56094 16.7442Z" fill="url(#paint5_linear_20005128_10786)"/>
<path d="M42.4028 59.9999L16.6835 41.1627L52.1345 35.5813L58.3905 41.8604L42.4028 59.9999Z" fill="black" fill-opacity="0.17"/>
<path d="M52.1331 35.5815L58.3891 41.8606L63.9501 24.4187L57.694 11.8606L52.1331 35.5815Z" fill="black" fill-opacity="0.1"/>
<path d="M16.6828 41.1628L42.4022 60L16.6828 56.5116L0 36.2791L16.6828 41.1628Z" fill="black" fill-opacity="0.23"/>
<path d="M5.56094 16.7441L0 36.279L16.6828 41.1627L13.9024 30L5.56094 16.7441Z" fill="#C0C0C0" fill-opacity="0.05"/>
<path d="M13.9024 30L5.56094 16.7442L31.2803 0L30.5852 14.6512L13.9024 30Z" fill="white" fill-opacity="0.15"/>
<path fill-rule="evenodd" clip-rule="evenodd" d="M13.9024 30L30.5852 14.6512L31.2803 0L5.56094 16.7442L13.9024 30ZM13.9885 29.3529L30.1767 14.4591L30.825 0.795357L6.1336 16.8703L13.9885 29.3529Z" fill="white" fill-opacity="0.15"/>
<path fill-rule="evenodd" clip-rule="evenodd" d="M30.9936 14.8433L14.3672 30.1402L16.9949 40.6899L51.7921 35.2115L57.2098 12.1013L31.6678 0.632591L30.9936 14.8433ZM30.5852 14.6512L13.9024 30L16.6828 41.1628L52.1338 35.5814L57.6948 11.8605L31.2803 0L30.5852 14.6512Z" fill="white" fill-opacity="0.15"/>
<path fill-rule="evenodd" clip-rule="evenodd" d="M42.3413 59.4372L57.8175 41.878L51.9889 36.0279L17.7413 41.4198L42.3413 59.4372ZM42.4022 60L58.3899 41.8604L52.1338 35.5814L16.6828 41.1628L42.4022 60Z" fill="white" fill-opacity="0.15"/>
<path fill-rule="evenodd" clip-rule="evenodd" d="M58.3899 41.8604L63.9508 24.4186L57.6948 11.8605L52.1338 35.5814L58.3899 41.8604ZM52.593 35.4503L58.2011 41.079L63.5018 24.4533L57.8369 13.0818L52.593 35.4503Z" fill="white" fill-opacity="0.15"/>
<path fill-rule="evenodd" clip-rule="evenodd" d="M16.4959 41.5441L1.18757 37.0627L16.9002 56.1187L40.826 59.3638L16.4959 41.5441ZM16.6828 41.1628L0 36.279L16.6828 56.5116L42.4022 60L16.6828 41.1628Z" fill="white" fill-opacity="0.15"/>
<path fill-rule="evenodd" clip-rule="evenodd" d="M0.514974 35.9938L16.1019 40.5567L13.514 30.1667L5.70595 17.7585L0.514974 35.9938ZM0 36.279L16.6828 41.1628L13.9024 30L5.56094 16.7442L0 36.279Z" fill="white" fill-opacity="0.15"/>
<path d="M32.2437 25.9304H36.963C36.8947 21.7706 33.4832 18.8987 28.2977 18.8987C23.1918 18.8987 19.4505 21.725 19.4732 25.9646C19.4618 29.4064 21.884 31.378 25.8186 32.3239L28.3545 32.9621C30.8904 33.5776 32.3005 34.3069 32.3119 35.8797C32.3005 37.5892 30.6858 38.7516 28.184 38.7516C25.6253 38.7516 23.7831 37.5664 23.6239 35.2301H18.8591C18.9842 40.2788 22.5891 42.8886 28.2408 42.8886C33.9267 42.8886 37.27 40.1648 37.2814 35.8911C37.27 32.0048 34.3475 29.942 30.2991 29.0303L28.2067 28.5288C26.1825 28.0616 24.4882 27.3094 24.5223 25.6341C24.5223 24.1297 25.8528 23.0242 28.2636 23.0242C30.6175 23.0242 32.0617 24.0955 32.2437 25.9304Z" fill="white"/>
<path d="M44.2903 26.3214H39.8919V42.5581H44.2903V26.3214Z" fill="white"/>
<path d="M42.6508 13.5095H41.041L39.0356 14.782V16.3042L40.8907 15.1387H40.9381V21.6279H42.6508V13.5095Z" fill="white"/>
<path d="M44.4535 20.2008H48.3416V21.6279H49.9792V20.2008H50.9838V18.8253H49.9792V13.5095H47.8354L44.4535 18.8491V20.2008ZM48.3733 18.8253H46.178V18.7619L48.31 15.3806H48.3733V18.8253Z" fill="white"/>
<defs>
<linearGradient id="paint0_linear_20005128_10786" x1="0" y1="30.1435" x2="63.9508" y2="30.1435" gradientUnits="userSpaceOnUse">
<stop stop-color="#6366F1"/>
<stop offset="0.5" stop-color="#8B5CF6"/>
<stop offset="1" stop-color="#D946EF"/>
</linearGradient>
<linearGradient id="paint1_linear_20005128_10786" x1="0" y1="30.1435" x2="63.9508" y2="30.1435" gradientUnits="userSpaceOnUse">
<stop stop-color="#6366F1"/>
<stop offset="0.5" stop-color="#8B5CF6"/>
<stop offset="1" stop-color="#D946EF"/>
</linearGradient>
<linearGradient id="paint2_linear_20005128_10786" x1="0" y1="30.1435" x2="63.9508" y2="30.1435" gradientUnits="userSpaceOnUse">
<stop stop-color="#6366F1"/>
<stop offset="0.5" stop-color="#8B5CF6"/>
<stop offset="1" stop-color="#D946EF"/>
</linearGradient>
<linearGradient id="paint3_linear_20005128_10786" x1="0" y1="30.1435" x2="63.9508" y2="30.1435" gradientUnits="userSpaceOnUse">
<stop stop-color="#6366F1"/>
<stop offset="0.5" stop-color="#8B5CF6"/>
<stop offset="1" stop-color="#D946EF"/>
</linearGradient>
<linearGradient id="paint4_linear_20005128_10786" x1="0" y1="30.1435" x2="63.9508" y2="30.1435" gradientUnits="userSpaceOnUse">
<stop stop-color="#6366F1"/>
<stop offset="0.5" stop-color="#8B5CF6"/>
<stop offset="1" stop-color="#D946EF"/>
</linearGradient>
<linearGradient id="paint5_linear_20005128_10786" x1="0" y1="30.1435" x2="63.9508" y2="30.1435" gradientUnits="userSpaceOnUse">
<stop stop-color="#6366F1"/>
<stop offset="0.5" stop-color="#8B5CF6"/>
<stop offset="1" stop-color="#D946EF"/>
</linearGradient>
</defs>
</svg>
